<svg xmlns="http://www.w3.org/2000/svg" viewBox="0 0 700 787.27"><defs><style>.cls-1{fill:#fff;}</style></defs><g id="katman_2" data-name="katman 2"><g id="katman_1-2" data-name="katman 1"><rect class="cls-1" x="578.59" y="380.22" width="28.03" height="27.82"/><path class="cls-1" d="M691.37,196.27q-8.4-14.88-25.23-24.58Q526.4,91.14,386.45,10.6c-25.24-14.45-49.39-14-74.4.64C275,33,89.06,139.56,33.86,171.69,11,184.84,0,205.11,0,231.42V555.76c0,12.94,2.8,24.37,8.19,34.29,5.61,10.14,14.24,18.76,25.67,25.45C89.28,647.63,275,753.94,312.05,775.94c25,14.66,49.38,15.31,74.4.65Q526.19,695.71,666.14,615.5c11.65-6.69,20.06-15.1,25.67-25.45,5.39-9.92,8.19-21.35,8.19-34.29V231.21C700,218.05,697.2,206.19,691.37,196.27ZM349.78,625.85A232.34,232.34,0,0,1,117.1,393.38c0-128.32,103.94-232.47,232.47-232.47,86,0,161.09,46.79,201.42,116.23L449.85,335.37a115.7,115.7,0,1,0,.86,114.72l101.14,58.44A232.6,232.6,0,0,1,349.78,625.85ZM648.46,408v23.08H629.7v18.76H606.62V431.12h-28v18.76H555.51V431.12H537V408h18.54V380.22H537V357.15h18.54V338.39h23.08v18.76h28V338.39H629.7v18.76h18.76v23.07H629.7V408Z"/></g></g></svg>