<svg xmlns="http://www.w3.org/2000/svg" viewBox="0 0 1008.82 899.9"><defs><style>.cls-1{fill:#fff;}</style></defs><g id="katman_2" data-name="katman 2"><g id="katman_1-2" data-name="katman 1"><polygon class="cls-1" points="381.32 566.24 313.23 475.46 94.4 351.05 381.32 566.24"/><polygon class="cls-1" points="618.91 336.52 635.92 408.72 810.3 423.25 238.32 899.9 1008.82 371.96 618.91 336.52"/><polygon class="cls-1" points="49.54 284.76 274.82 378.63 546.23 401.24 539.62 329.31 49.54 284.76"/><polygon class="cls-1" points="569.87 604.22 650.8 536.78 524.31 0 571.98 518.58 0 280.25 569.87 604.22"/><polygon class="cls-1" points="623.91 653.76 861.39 899.9 689.06 609.11 623.91 653.76"/><polygon class="cls-1" points="463.26 627.32 233.73 883.09 555.11 615.27 406.5 528.44 463.26 627.32"/><polygon class="cls-1" points="539.62 308.86 517.37 43.96 485.13 303.9 539.62 308.86"/><polygon class="cls-1" points="586.48 678.4 819.78 875.43 610.46 664.01 586.48 678.4"/></g></g></svg>