<svg xmlns="http://www.w3.org/2000/svg" viewBox="0 0 1024.41 944.25"><defs><style>.cls-1{fill:#fff;}</style></defs><g id="katman_2" data-name="katman 2"><g id="katman_1-2" data-name="katman 1"><polygon class="cls-1" points="124.52 459.43 285.29 550.82 331.53 614.68 124.52 459.43"/><polygon class="cls-1" points="846.74 453.33 630.18 435.29 615.19 371.66 1024.41 408.86 325.25 887.92 846.74 453.33"/><polygon class="cls-1" points="209.68 400.25 8.76 316.53 503.21 361.48 509.07 425.19 209.68 400.25"/><polygon class="cls-1" points="30 364.33 559.87 585.11 506.09 0 629.18 587.83 545.63 657.46 30 364.33"/><polygon class="cls-1" points="623.28 727.3 680.71 687.95 832.6 944.25 623.28 727.3"/><polygon class="cls-1" points="429.03 322.6 480.06 93.65 501.71 329.2 429.03 322.6"/><polygon class="cls-1" points="553.44 780.55 595.05 752.04 765.01 916.04 553.44 780.55"/><polygon class="cls-1" points="0.91 381.41 0 380.89 0.83 381.52 0.91 381.41"/><polyline class="cls-1" points="424.88 709.32 347.91 589.51 517.97 686.19 226.56 929.03 365.56 687.9"/></g></g></svg>