<svg xmlns="http://www.w3.org/2000/svg" viewBox="0 0 808.85 1088.69"><defs><style>.cls-1{fill:#fff;}</style></defs><g id="katman_2" data-name="katman 2"><g id="katman_1-2" data-name="katman 1"><path class="cls-1" d="M808.85,238.93V204.46a66.38,66.38,0,0,0-66.38-66.39H487a86.51,86.51,0,0,0-53.5-56.23V17.76A17.76,17.76,0,0,0,415.77,0H393.08a17.76,17.76,0,0,0-17.76,17.76V81.84a86.48,86.48,0,0,0-53.49,56.23H66.38A66.38,66.38,0,0,0,0,204.46v34.47ZM404.43,117.14a46,46,0,1,1-46,46A45.95,45.95,0,0,1,404.43,117.14Z"/><path class="cls-1" d="M577.43,397.14h-346a14.16,14.16,0,0,0-14.16,14.16v346a14.16,14.16,0,0,0,14.16,14.15h346a14.16,14.16,0,0,0,14.16-14.15v-346A14.16,14.16,0,0,0,577.43,397.14ZM543.72,704.25a19.34,19.34,0,0,1-19.35,19.34H423.77a19.34,19.34,0,0,1-19.34-19.34v-120H284.48A19.34,19.34,0,0,1,265.13,565V464.35A19.34,19.34,0,0,1,284.48,445h100.6a19.34,19.34,0,0,1,19.35,19.34V584.3H524.37a19.34,19.34,0,0,1,19.35,19.34Z"/><path class="cls-1" d="M0,281.82V877.23a66.38,66.38,0,0,0,66.38,66.38H321.83a86.45,86.45,0,0,0,53.49,56.23v71.09a17.76,17.76,0,0,0,17.76,17.76h22.69a17.76,17.76,0,0,0,17.76-17.76V999.84A86.49,86.49,0,0,0,487,943.61H742.47a66.38,66.38,0,0,0,66.38-66.38V281.82ZM404.43,964.55a46,46,0,1,1,45.95-46A46,46,0,0,1,404.43,964.55ZM645.57,780.72a44.72,44.72,0,0,1-44.72,44.73H208a44.72,44.72,0,0,1-44.72-44.73V387.88A44.73,44.73,0,0,1,208,343.15H600.85a44.73,44.73,0,0,1,44.72,44.73Z"/></g></g></svg>